<?xml version="1.0" encoding="UTF-8"?>
<svg id="Layer_2" data-name="Layer 2" xmlns="http://www.w3.org/2000/svg" xmlns:xlink="http://www.w3.org/1999/xlink" viewBox="0 0 128 93">
  <defs>
    <style>
      .cls-1 {
        filter: url(#drop-shadow-3);
      }

      .cls-1, .cls-2, .cls-3 {
        fill: #fff;
      }

      .cls-1, .cls-2, .cls-3, .cls-4, .cls-5, .cls-6 {
        stroke-width: 0px;
      }

      .cls-2 {
        filter: url(#drop-shadow-2);
      }

      .cls-3 {
        filter: url(#drop-shadow-4);
      }

      .cls-4 {
        fill: #5649ce;
        filter: url(#drop-shadow-1);
      }

      .cls-5 {
        fill: #80ebe9;
      }

      .cls-6 {
        fill: #e5e5e5;
      }
    </style>
    <filter id="drop-shadow-1" filterUnits="userSpaceOnUse">
      <feOffset dx="1" dy="2"/>
      <feGaussianBlur result="blur" stdDeviation="2"/>
      <feFlood flood-color="#686868" flood-opacity=".35"/>
      <feComposite in2="blur" operator="in"/>
      <feComposite in="SourceGraphic"/>
    </filter>
    <filter id="drop-shadow-2" filterUnits="userSpaceOnUse">
      <feOffset dx="1" dy="2"/>
      <feGaussianBlur result="blur-2" stdDeviation="2"/>
      <feFlood flood-color="#686868" flood-opacity=".35"/>
      <feComposite in2="blur-2" operator="in"/>
      <feComposite in="SourceGraphic"/>
    </filter>
    <filter id="drop-shadow-3" filterUnits="userSpaceOnUse">
      <feOffset dx="1" dy="2"/>
      <feGaussianBlur result="blur-3" stdDeviation="2"/>
      <feFlood flood-color="#686868" flood-opacity=".35"/>
      <feComposite in2="blur-3" operator="in"/>
      <feComposite in="SourceGraphic"/>
    </filter>
    <filter id="drop-shadow-4" filterUnits="userSpaceOnUse">
      <feOffset dx="1" dy="2"/>
      <feGaussianBlur result="blur-4" stdDeviation="2"/>
      <feFlood flood-color="#686868" flood-opacity=".35"/>
      <feComposite in2="blur-4" operator="in"/>
      <feComposite in="SourceGraphic"/>
    </filter>
  </defs>
  <g id="Layer_1-2" data-name="Layer 1">
    <g>
      <g>
        <path class="cls-4" d="m9.95,22.47h106.84c2.21,0,4,1.79,4,4v7.94H5.95v-7.94c0-2.21,1.79-4,4-4Z"/>
        <path class="cls-2" d="m5.95,34.82h114.84v28.03c0,2.21-1.79,4-4,4H9.95c-2.21,0-4-1.79-4-4v-28.03h0Z"/>
        <rect class="cls-5" x="10.65" y="26.24" width="37.21" height="4.69" rx="2.34" ry="2.34"/>
        <polygon class="cls-6" points="115.86 30.36 113.22 27.73 113.83 27.11 115.86 29.14 117.89 27.1 118.51 27.71 115.86 30.36"/>
      </g>
      <g>
        <rect class="cls-1" x="5.95" y="4.88" width="114.84" height="11.94" rx="4" ry="4"/>
        <polygon class="cls-6" points="114.23 10.99 116.87 8.35 117.48 8.97 115.46 10.99 117.49 13.03 116.88 13.64 114.23 10.99"/>
      </g>
      <g>
        <rect class="cls-3" x="5.95" y="72.49" width="114.84" height="11.94" rx="4" ry="4"/>
        <polygon class="cls-6" points="114.23 78.61 116.87 75.97 117.48 76.58 115.46 78.61 117.49 80.64 116.88 81.26 114.23 78.61"/>
      </g>
    </g>
  </g>
</svg>