<?xml version="1.0" encoding="UTF-8"?>
<svg id="Layer_2" data-name="Layer 2" xmlns="http://www.w3.org/2000/svg" xmlns:xlink="http://www.w3.org/1999/xlink" viewBox="0 0 140 44">
  <defs>
    <style>
      .cls-1 {
        filter: url(#drop-shadow-1);
        stroke: #5649ce;
      }

      .cls-1, .cls-2, .cls-3 {
        stroke-miterlimit: 10;
        stroke-width: .5px;
      }

      .cls-1, .cls-2, .cls-3, .cls-4 {
        fill: #fff;
      }

      .cls-2 {
        filter: url(#drop-shadow-3);
        stroke: #3a3a3a;
      }

      .cls-3 {
        filter: url(#drop-shadow-2);
        stroke: #80ebe9;
      }

      .cls-5, .cls-6, .cls-7, .cls-8, .cls-9, .cls-10, .cls-11, .cls-4 {
        stroke-width: 0px;
      }

      .cls-6 {
        filter: url(#drop-shadow-5);
      }

      .cls-6, .cls-11 {
        fill: #80ebe9;
      }

      .cls-7 {
        fill: #e5e5e5;
        filter: url(#drop-shadow-6);
      }

      .cls-8 {
        filter: url(#drop-shadow-4);
      }

      .cls-8, .cls-9 {
        fill: #5649ce;
      }

      .cls-10 {
        fill: #3a3a3a;
      }
    </style>
    <filter id="drop-shadow-1" filterUnits="userSpaceOnUse">
      <feOffset dx="1" dy="2"/>
      <feGaussianBlur result="blur" stdDeviation="2"/>
      <feFlood flood-color="#686868" flood-opacity=".35"/>
      <feComposite in2="blur" operator="in"/>
      <feComposite in="SourceGraphic"/>
    </filter>
    <filter id="drop-shadow-2" filterUnits="userSpaceOnUse">
      <feOffset dx="1" dy="2"/>
      <feGaussianBlur result="blur-2" stdDeviation="2"/>
      <feFlood flood-color="#686868" flood-opacity=".15"/>
      <feComposite in2="blur-2" operator="in"/>
      <feComposite in="SourceGraphic"/>
    </filter>
    <filter id="drop-shadow-3" filterUnits="userSpaceOnUse">
      <feOffset dx="1" dy="2"/>
      <feGaussianBlur result="blur-3" stdDeviation="2"/>
      <feFlood flood-color="#686868" flood-opacity=".35"/>
      <feComposite in2="blur-3" operator="in"/>
      <feComposite in="SourceGraphic"/>
    </filter>
    <filter id="drop-shadow-4" filterUnits="userSpaceOnUse">
      <feOffset dx="1" dy="2"/>
      <feGaussianBlur result="blur-4" stdDeviation="2"/>
      <feFlood flood-color="#686868" flood-opacity=".35"/>
      <feComposite in2="blur-4" operator="in"/>
      <feComposite in="SourceGraphic"/>
    </filter>
    <filter id="drop-shadow-5" filterUnits="userSpaceOnUse">
      <feOffset dx="1" dy="2"/>
      <feGaussianBlur result="blur-5" stdDeviation="2"/>
      <feFlood flood-color="#686868" flood-opacity=".35"/>
      <feComposite in2="blur-5" operator="in"/>
      <feComposite in="SourceGraphic"/>
    </filter>
    <filter id="drop-shadow-6" filterUnits="userSpaceOnUse">
      <feOffset dx="1" dy="2"/>
      <feGaussianBlur result="blur-6" stdDeviation="2"/>
      <feFlood flood-color="#686868" flood-opacity=".35"/>
      <feComposite in2="blur-6" operator="in"/>
      <feComposite in="SourceGraphic"/>
    </filter>
  </defs>
  <g id="Layer_1-2" data-name="Layer 1">
    <g>
      <g>
        <rect class="cls-1" x="5.63" y="23.24" width="36.39" height="11.94" rx="2" ry="2"/>
        <g>
          <path class="cls-9" d="m15.26,27.01h1.86c.73,0,1.17.44,1.17,1.06,0,.53-.35.88-.73.96.44.07.81.53.81,1.03,0,.67-.44,1.13-1.21,1.13h-1.9v-4.17Zm1.77,1.81c.47,0,.72-.29.72-.67s-.25-.68-.72-.68h-1.25v1.35h1.25Zm.02,1.9c.49,0,.78-.28.78-.72,0-.38-.26-.72-.78-.72h-1.28v1.44h1.28Z"/>
          <path class="cls-9" d="m21.21,30.75c-.23.26-.63.5-1.08.5-.63,0-.96-.31-.96-.96v-2.13h.47v1.99c0,.53.27.69.68.69.37,0,.72-.21.89-.46v-2.22h.47v3.02h-.47v-.43Z"/>
          <path class="cls-9" d="m22.72,30.55v-1.98h-.5v-.41h.5v-.83h.47v.83h.61v.41h-.61v1.88c0,.23.1.39.31.39.13,0,.26-.06.32-.12l.14.35c-.12.11-.29.19-.56.19-.44,0-.67-.26-.67-.71Z"/>
          <path class="cls-9" d="m24.56,30.55v-1.98h-.5v-.41h.5v-.83h.47v.83h.61v.41h-.61v1.88c0,.23.1.39.31.39.13,0,.26-.06.32-.12l.14.35c-.12.11-.29.19-.56.19-.44,0-.67-.26-.67-.71Z"/>
          <path class="cls-9" d="m26.13,29.66c0-.88.58-1.58,1.5-1.58s1.5.71,1.5,1.58-.58,1.59-1.5,1.59-1.5-.71-1.5-1.59Zm2.5,0c0-.61-.36-1.16-1-1.16s-1.01.55-1.01,1.16.36,1.17,1.01,1.17,1-.55,1-1.17Z"/>
          <path class="cls-9" d="m31.92,29.2c0-.53-.27-.7-.68-.7-.37,0-.72.23-.89.47v2.21h-.47v-3.02h.47v.44c.21-.25.63-.51,1.08-.51.63,0,.96.32.96.98v2.12h-.47v-1.98Z"/>
        </g>
      </g>
      <g>
        <rect class="cls-3" x="50.8" y="23.24" width="36.39" height="11.94" rx="2" ry="2"/>
        <g>
          <path class="cls-11" d="m60.43,27.01h1.86c.73,0,1.17.44,1.17,1.06,0,.53-.35.88-.73.96.44.07.81.53.81,1.03,0,.67-.44,1.13-1.21,1.13h-1.9v-4.17Zm1.77,1.81c.47,0,.72-.29.72-.67s-.25-.68-.72-.68h-1.25v1.35h1.25Zm.02,1.9c.49,0,.78-.28.78-.72,0-.38-.26-.72-.78-.72h-1.28v1.44h1.28Z"/>
          <path class="cls-11" d="m66.39,30.75c-.23.26-.63.5-1.08.5-.63,0-.96-.31-.96-.96v-2.13h.47v1.99c0,.53.27.69.68.69.37,0,.72-.21.89-.46v-2.22h.47v3.02h-.47v-.43Z"/>
          <path class="cls-11" d="m67.89,30.55v-1.98h-.5v-.41h.5v-.83h.47v.83h.61v.41h-.61v1.88c0,.23.1.39.31.39.13,0,.26-.06.32-.12l.14.35c-.12.11-.29.19-.56.19-.44,0-.67-.26-.67-.71Z"/>
          <path class="cls-11" d="m69.73,30.55v-1.98h-.5v-.41h.5v-.83h.47v.83h.61v.41h-.61v1.88c0,.23.1.39.31.39.13,0,.26-.06.32-.12l.14.35c-.12.11-.29.19-.56.19-.44,0-.67-.26-.67-.71Z"/>
          <path class="cls-11" d="m71.3,29.66c0-.88.58-1.58,1.5-1.58s1.5.71,1.5,1.58-.58,1.59-1.5,1.59-1.5-.71-1.5-1.59Zm2.5,0c0-.61-.36-1.16-1-1.16s-1.01.55-1.01,1.16.36,1.17,1.01,1.17,1-.55,1-1.17Z"/>
          <path class="cls-11" d="m77.1,29.2c0-.53-.27-.7-.68-.7-.37,0-.72.23-.89.47v2.21h-.47v-3.02h.47v.44c.21-.25.63-.51,1.08-.51.63,0,.96.32.96.98v2.12h-.47v-1.98Z"/>
        </g>
      </g>
      <g>
        <rect class="cls-2" x="95.98" y="23.24" width="36.39" height="11.94" rx="2" ry="2"/>
        <g>
          <path class="cls-10" d="m105.61,27.01h1.86c.73,0,1.17.44,1.17,1.06,0,.53-.35.88-.73.96.44.07.81.53.81,1.03,0,.67-.44,1.13-1.21,1.13h-1.9v-4.17Zm1.77,1.81c.47,0,.72-.29.72-.67s-.25-.68-.72-.68h-1.25v1.35h1.25Zm.02,1.9c.49,0,.78-.28.78-.72,0-.38-.26-.72-.78-.72h-1.28v1.44h1.28Z"/>
          <path class="cls-10" d="m111.57,30.75c-.23.26-.63.5-1.08.5-.63,0-.96-.31-.96-.96v-2.13h.47v1.99c0,.53.27.69.68.69.37,0,.72-.21.89-.46v-2.22h.47v3.02h-.47v-.43Z"/>
          <path class="cls-10" d="m113.07,30.55v-1.98h-.5v-.41h.5v-.83h.47v.83h.61v.41h-.61v1.88c0,.23.1.39.31.39.13,0,.26-.06.32-.12l.14.35c-.12.11-.29.19-.56.19-.44,0-.67-.26-.67-.71Z"/>
          <path class="cls-10" d="m114.91,30.55v-1.98h-.5v-.41h.5v-.83h.47v.83h.61v.41h-.61v1.88c0,.23.1.39.31.39.13,0,.26-.06.32-.12l.14.35c-.12.11-.29.19-.56.19-.44,0-.67-.26-.67-.71Z"/>
          <path class="cls-10" d="m116.48,29.66c0-.88.58-1.58,1.5-1.58s1.5.71,1.5,1.58-.58,1.59-1.5,1.59-1.5-.71-1.5-1.59Zm2.5,0c0-.61-.36-1.16-1-1.16s-1.01.55-1.01,1.16.36,1.17,1.01,1.17,1-.55,1-1.17Z"/>
          <path class="cls-10" d="m122.27,29.2c0-.53-.27-.7-.68-.7-.37,0-.72.23-.89.47v2.21h-.47v-3.02h.47v.44c.21-.25.63-.51,1.08-.51.63,0,.96.32.96.98v2.12h-.47v-1.98Z"/>
        </g>
      </g>
    </g>
    <g>
      <g>
        <rect class="cls-8" x="5.63" y="4.76" width="36.39" height="11.94" rx="2" ry="2"/>
        <g>
          <path class="cls-4" d="m15.26,8.53h1.86c.73,0,1.17.44,1.17,1.06,0,.53-.35.88-.73.96.44.07.81.53.81,1.03,0,.67-.44,1.13-1.21,1.13h-1.9v-4.17Zm1.77,1.81c.47,0,.72-.29.72-.67s-.25-.68-.72-.68h-1.25v1.35h1.25Zm.02,1.9c.49,0,.78-.28.78-.72,0-.38-.26-.72-.78-.72h-1.28v1.44h1.28Z"/>
          <path class="cls-4" d="m21.21,12.28c-.23.26-.63.5-1.08.5-.63,0-.96-.31-.96-.96v-2.13h.47v1.99c0,.53.27.69.68.69.37,0,.72-.21.89-.46v-2.22h.47v3.02h-.47v-.43Z"/>
          <path class="cls-4" d="m22.72,12.07v-1.98h-.5v-.41h.5v-.83h.47v.83h.61v.41h-.61v1.88c0,.23.1.39.31.39.13,0,.26-.06.32-.12l.14.35c-.12.11-.29.19-.56.19-.44,0-.67-.26-.67-.71Z"/>
          <path class="cls-4" d="m24.56,12.07v-1.98h-.5v-.41h.5v-.83h.47v.83h.61v.41h-.61v1.88c0,.23.1.39.31.39.13,0,.26-.06.32-.12l.14.35c-.12.11-.29.19-.56.19-.44,0-.67-.26-.67-.71Z"/>
          <path class="cls-4" d="m26.13,11.19c0-.88.58-1.58,1.5-1.58s1.5.71,1.5,1.58-.58,1.59-1.5,1.59-1.5-.71-1.5-1.59Zm2.5,0c0-.61-.36-1.16-1-1.16s-1.01.55-1.01,1.16.36,1.17,1.01,1.17,1-.55,1-1.17Z"/>
          <path class="cls-4" d="m31.92,10.73c0-.53-.27-.7-.68-.7-.37,0-.72.23-.89.47v2.21h-.47v-3.02h.47v.44c.21-.25.63-.51,1.08-.51.63,0,.96.32.96.98v2.12h-.47v-1.98Z"/>
        </g>
      </g>
      <g>
        <rect class="cls-6" x="50.8" y="4.76" width="36.39" height="11.94" rx="2" ry="2"/>
        <g>
          <path class="cls-4" d="m60.43,8.53h1.86c.73,0,1.17.44,1.17,1.06,0,.53-.35.88-.73.96.44.07.81.53.81,1.03,0,.67-.44,1.13-1.21,1.13h-1.9v-4.17Zm1.77,1.81c.47,0,.72-.29.72-.67s-.25-.68-.72-.68h-1.25v1.35h1.25Zm.02,1.9c.49,0,.78-.28.78-.72,0-.38-.26-.72-.78-.72h-1.28v1.44h1.28Z"/>
          <path class="cls-4" d="m66.39,12.28c-.23.26-.63.5-1.08.5-.63,0-.96-.31-.96-.96v-2.13h.47v1.99c0,.53.27.69.68.69.37,0,.72-.21.89-.46v-2.22h.47v3.02h-.47v-.43Z"/>
          <path class="cls-4" d="m67.89,12.07v-1.98h-.5v-.41h.5v-.83h.47v.83h.61v.41h-.61v1.88c0,.23.1.39.31.39.13,0,.26-.06.32-.12l.14.35c-.12.11-.29.19-.56.19-.44,0-.67-.26-.67-.71Z"/>
          <path class="cls-4" d="m69.73,12.07v-1.98h-.5v-.41h.5v-.83h.47v.83h.61v.41h-.61v1.88c0,.23.1.39.31.39.13,0,.26-.06.32-.12l.14.35c-.12.11-.29.19-.56.19-.44,0-.67-.26-.67-.71Z"/>
          <path class="cls-4" d="m71.3,11.19c0-.88.58-1.58,1.5-1.58s1.5.71,1.5,1.58-.58,1.59-1.5,1.59-1.5-.71-1.5-1.59Zm2.5,0c0-.61-.36-1.16-1-1.16s-1.01.55-1.01,1.16.36,1.17,1.01,1.17,1-.55,1-1.17Z"/>
          <path class="cls-4" d="m77.1,10.73c0-.53-.27-.7-.68-.7-.37,0-.72.23-.89.47v2.21h-.47v-3.02h.47v.44c.21-.25.63-.51,1.08-.51.63,0,.96.32.96.98v2.12h-.47v-1.98Z"/>
        </g>
      </g>
      <g>
        <rect class="cls-7" x="95.98" y="4.76" width="36.39" height="11.94" rx="2" ry="2"/>
        <g>
          <path class="cls-5" d="m105.61,8.53h1.86c.73,0,1.17.44,1.17,1.06,0,.53-.35.88-.73.96.44.07.81.53.81,1.03,0,.67-.44,1.13-1.21,1.13h-1.9v-4.17Zm1.77,1.81c.47,0,.72-.29.72-.67s-.25-.68-.72-.68h-1.25v1.35h1.25Zm.02,1.9c.49,0,.78-.28.78-.72,0-.38-.26-.72-.78-.72h-1.28v1.44h1.28Z"/>
          <path class="cls-5" d="m111.57,12.28c-.23.26-.63.5-1.08.5-.63,0-.96-.31-.96-.96v-2.13h.47v1.99c0,.53.27.69.68.69.37,0,.72-.21.89-.46v-2.22h.47v3.02h-.47v-.43Z"/>
          <path class="cls-5" d="m113.07,12.07v-1.98h-.5v-.41h.5v-.83h.47v.83h.61v.41h-.61v1.88c0,.23.1.39.31.39.13,0,.26-.06.32-.12l.14.35c-.12.11-.29.19-.56.19-.44,0-.67-.26-.67-.71Z"/>
          <path class="cls-5" d="m114.91,12.07v-1.98h-.5v-.41h.5v-.83h.47v.83h.61v.41h-.61v1.88c0,.23.1.39.31.39.13,0,.26-.06.32-.12l.14.35c-.12.11-.29.19-.56.19-.44,0-.67-.26-.67-.71Z"/>
          <path class="cls-5" d="m116.48,11.19c0-.88.58-1.58,1.5-1.58s1.5.71,1.5,1.58-.58,1.59-1.5,1.59-1.5-.71-1.5-1.59Zm2.5,0c0-.61-.36-1.16-1-1.16s-1.01.55-1.01,1.16.36,1.17,1.01,1.17,1-.55,1-1.17Z"/>
          <path class="cls-5" d="m122.27,10.73c0-.53-.27-.7-.68-.7-.37,0-.72.23-.89.47v2.21h-.47v-3.02h.47v.44c.21-.25.63-.51,1.08-.51.63,0,.96.32.96.98v2.12h-.47v-1.98Z"/>
        </g>
      </g>
    </g>
  </g>
</svg>