<?xml version="1.0" encoding="UTF-8"?>
<svg id="Layer_2" data-name="Layer 2" xmlns="http://www.w3.org/2000/svg" xmlns:xlink="http://www.w3.org/1999/xlink" viewBox="0 0 128 82">
  <defs>
    <style>
      .cls-1 {
        filter: url(#drop-shadow-2);
      }

      .cls-1, .cls-2 {
        fill: #fff;
      }

      .cls-1, .cls-2, .cls-3, .cls-4, .cls-5, .cls-6 {
        stroke-width: 0px;
      }

      .cls-2 {
        filter: url(#drop-shadow-1);
      }

      .cls-3 {
        fill: #5649ce;
      }

      .cls-4 {
        fill: #b2bac1;
      }

      .cls-5 {
        fill: #80ebe9;
      }

      .cls-6 {
        fill: #e5e5e5;
      }
    </style>
    <filter id="drop-shadow-1" filterUnits="userSpaceOnUse">
      <feOffset dx="1" dy="2"/>
      <feGaussianBlur result="blur" stdDeviation="2"/>
      <feFlood flood-color="#686868" flood-opacity=".35"/>
      <feComposite in2="blur" operator="in"/>
      <feComposite in="SourceGraphic"/>
    </filter>
    <filter id="drop-shadow-2" filterUnits="userSpaceOnUse">
      <feOffset dx="1" dy="2"/>
      <feGaussianBlur result="blur-2" stdDeviation="2"/>
      <feFlood flood-color="#686868" flood-opacity=".35"/>
      <feComposite in2="blur-2" operator="in"/>
      <feComposite in="SourceGraphic"/>
    </filter>
  </defs>
  <g id="Layer_1-2" data-name="Layer 1">
    <g>
      <rect class="cls-2" x="5.95" y="4.16" width="114.84" height="11.94" rx="4" ry="4"/>
      <rect class="cls-1" x="5.95" y="18.51" width="114.84" height="55.34" rx="4" ry="4"/>
      <rect class="cls-3" x="10.65" y="7.93" width="37.21" height="4.69" rx="2.34" ry="2.34"/>
      <rect class="cls-4" x="10.65" y="24.04" width="73.74" height="4.69" rx="2.34" ry="2.34"/>
      <rect class="cls-6" x="5.95" y="33.56" width="109.91" height="11.77"/>
      <rect class="cls-4" x="10.65" y="37.1" width="68.54" height="4.69" rx="2.34" ry="2.34"/>
      <rect class="cls-4" x="10.65" y="50.16" width="88.17" height="4.69" rx="2.34" ry="2.34"/>
      <rect class="cls-4" x="10.65" y="63.22" width="35.35" height="4.69" rx="2.34" ry="2.34"/>
      <rect class="cls-4" x="117.02" y="21.67" width="2.34" height="41.55" rx="1.17" ry="1.17"/>
      <rect class="cls-5" x="117.02" y="21.67" width="2.34" height="14.84" rx="1.17" ry="1.17"/>
      <polygon class="cls-4" points="115.86 12.05 113.22 9.41 113.83 8.8 115.86 10.83 117.89 8.79 118.51 9.4 115.86 12.05"/>
    </g>
  </g>
</svg>