<?xml version="1.0" encoding="UTF-8"?>
<svg id="Layer_2" data-name="Layer 2" xmlns="http://www.w3.org/2000/svg" xmlns:xlink="http://www.w3.org/1999/xlink" viewBox="0 0 122 26">
  <defs>
    <style>
      .cls-1 {
        filter: url(#drop-shadow-5);
      }

      .cls-1, .cls-2, .cls-3, .cls-4, .cls-5, .cls-6 {
        stroke-width: 0px;
      }

      .cls-1, .cls-4, .cls-5 {
        fill: #80ebe9;
      }

      .cls-2 {
        fill: #e5e5e5;
      }

      .cls-3 {
        fill: #5649ce;
        filter: url(#drop-shadow-2);
      }

      .cls-4 {
        filter: url(#drop-shadow-4);
      }

      .cls-5 {
        filter: url(#drop-shadow-3);
      }

      .cls-6 {
        fill: #fff;
        filter: url(#drop-shadow-1);
      }
    </style>
    <filter id="drop-shadow-1" filterUnits="userSpaceOnUse">
      <feOffset dx="1" dy="1"/>
      <feGaussianBlur result="blur" stdDeviation="1"/>
      <feFlood flood-color="#686868" flood-opacity=".25"/>
      <feComposite in2="blur" operator="in"/>
      <feComposite in="SourceGraphic"/>
    </filter>
    <filter id="drop-shadow-2" filterUnits="userSpaceOnUse">
      <feOffset dx="1" dy="1"/>
      <feGaussianBlur result="blur-2" stdDeviation="1"/>
      <feFlood flood-color="#686868" flood-opacity=".25"/>
      <feComposite in2="blur-2" operator="in"/>
      <feComposite in="SourceGraphic"/>
    </filter>
    <filter id="drop-shadow-3" filterUnits="userSpaceOnUse">
      <feOffset dx="1" dy="1"/>
      <feGaussianBlur result="blur-3" stdDeviation="1"/>
      <feFlood flood-color="#686868" flood-opacity=".25"/>
      <feComposite in2="blur-3" operator="in"/>
      <feComposite in="SourceGraphic"/>
    </filter>
    <filter id="drop-shadow-4" filterUnits="userSpaceOnUse">
      <feOffset dx="1" dy="1"/>
      <feGaussianBlur result="blur-4" stdDeviation="1"/>
      <feFlood flood-color="#686868" flood-opacity=".25"/>
      <feComposite in2="blur-4" operator="in"/>
      <feComposite in="SourceGraphic"/>
    </filter>
    <filter id="drop-shadow-5" filterUnits="userSpaceOnUse">
      <feOffset dx="1" dy="1"/>
      <feGaussianBlur result="blur-5" stdDeviation="1"/>
      <feFlood flood-color="#686868" flood-opacity=".25"/>
      <feComposite in2="blur-5" operator="in"/>
      <feComposite in="SourceGraphic"/>
    </filter>
  </defs>
  <g id="Layer_1-2" data-name="Layer 1">
    <g>
      <rect class="cls-6" x="2.95" y="10.02" width="114.84" height="11.94" rx="4" ry="4"/>
      <rect class="cls-3" x="6.55" y="2.15" width="27.38" height="4.69" rx="2.34" ry="2.34"/>
      <rect class="cls-2" x="6.55" y="13.67" width="55.62" height="4.69" rx="2.34" ry="2.34"/>
      <g>
        <path class="cls-5" d="M112.31,2.15h0c-1.29,0-2.34,1.05-2.34,2.34s1.05,2.34,2.34,2.34h0c1.29,0,2.34-1.05,2.34-2.34s-1.05-2.34-2.34-2.34ZM112.31,6.34c-1.02,0-1.84-.83-1.84-1.84s.83-1.84,1.84-1.84,1.84.83,1.84,1.84-.83,1.84-1.84,1.84Z"/>
        <rect class="cls-4" x="112.16" y="3.94" width=".3" height="1.64"/>
        <path class="cls-1" d="M112.3,3.29c-.11,0-.19.08-.19.19s.07.18.18.18c.12,0,.19-.08.19-.18,0-.1-.07-.19-.18-.19Z"/>
      </g>
    </g>
  </g>
</svg>