<?xml version="1.0" encoding="UTF-8"?>
<svg id="Layer_2" data-name="Layer 2" xmlns="http://www.w3.org/2000/svg" xmlns:xlink="http://www.w3.org/1999/xlink" viewBox="0 0 121 45">
  <defs>
    <style>
      .cls-1 {
        filter: url(#drop-shadow-2);
      }

      .cls-1, .cls-2, .cls-3, .cls-4, .cls-5, .cls-6 {
        stroke-width: 0px;
      }

      .cls-1, .cls-3, .cls-5, .cls-6 {
        fill: #80ebe9;
      }

      .cls-2 {
        fill: #5649ce;
        filter: url(#drop-shadow-1);
      }

      .cls-3 {
        filter: url(#drop-shadow-4);
      }

      .cls-4 {
        fill: #fff;
      }

      .cls-6 {
        filter: url(#drop-shadow-3);
      }
    </style>
    <filter id="drop-shadow-1" filterUnits="userSpaceOnUse">
      <feOffset dx="1" dy="1"/>
      <feGaussianBlur result="blur" stdDeviation="1"/>
      <feFlood flood-color="#686868" flood-opacity=".25"/>
      <feComposite in2="blur" operator="in"/>
      <feComposite in="SourceGraphic"/>
    </filter>
    <filter id="drop-shadow-2" filterUnits="userSpaceOnUse">
      <feOffset dx="1" dy="1"/>
      <feGaussianBlur result="blur-2" stdDeviation="1"/>
      <feFlood flood-color="#686868" flood-opacity=".25"/>
      <feComposite in2="blur-2" operator="in"/>
      <feComposite in="SourceGraphic"/>
    </filter>
    <filter id="drop-shadow-3" filterUnits="userSpaceOnUse">
      <feOffset dx="1" dy="1"/>
      <feGaussianBlur result="blur-3" stdDeviation="1"/>
      <feFlood flood-color="#686868" flood-opacity=".25"/>
      <feComposite in2="blur-3" operator="in"/>
      <feComposite in="SourceGraphic"/>
    </filter>
    <filter id="drop-shadow-4" filterUnits="userSpaceOnUse">
      <feOffset dx="1" dy="1"/>
      <feGaussianBlur result="blur-4" stdDeviation="1"/>
      <feFlood flood-color="#686868" flood-opacity=".25"/>
      <feComposite in2="blur-4" operator="in"/>
      <feComposite in="SourceGraphic"/>
    </filter>
  </defs>
  <g id="Layer_1-2" data-name="Layer 1">
    <g>
      <path class="cls-2" d="M113.57,3.78H27.69c-1.78,0-3.22,1.44-3.22,3.22v1.55l-2.45,1.48c-.32.19-.31.66.02.84l2.43,1.32v24.74c0,1.78,1.44,3.22,3.22,3.22h85.88c1.78,0,3.22-1.44,3.22-3.22V7c0-1.78-1.44-3.22-3.22-3.22Z"/>
      <rect class="cls-5" x="27.36" y="7.89" width="22.01" height="3.77" rx="1.84" ry="1.84"/>
      <rect class="cls-4" x="27.36" y="15.27" width="85.41" height="3.77" rx="1.84" ry="1.84"/>
      <rect class="cls-4" x="27.36" y="22.72" width="85.41" height="3.77" rx="1.84" ry="1.84"/>
      <rect class="cls-4" x="27.36" y="30.17" width="39.5" height="3.77" rx="1.84" ry="1.84"/>
      <g>
        <path class="cls-1" d="M10.3,2.61h0c-4.25,0-7.7,3.45-7.7,7.7s3.45,7.7,7.7,7.7h0c4.25,0,7.7-3.45,7.7-7.7s-3.45-7.7-7.7-7.7ZM10.3,16.38c-3.34,0-6.06-2.72-6.06-6.06s2.72-6.06,6.06-6.06,6.06,2.72,6.06,6.06-2.72,6.06-6.06,6.06Z"/>
        <rect class="cls-6" x="9.79" y="8.48" width=".98" height="5.39"/>
        <path class="cls-3" d="M10.28,6.36c-.36,0-.61.27-.61.61s.24.6.59.6c.39,0,.64-.27.62-.6,0-.35-.23-.61-.6-.61Z"/>
      </g>
    </g>
  </g>
</svg>