<?xml version="1.0" encoding="UTF-8"?>
<svg id="Layer_2" data-name="Layer 2" xmlns="http://www.w3.org/2000/svg" xmlns:xlink="http://www.w3.org/1999/xlink" viewBox="0 0 48.98 52.47">
  <defs>
    <style>
      .cls-1 {
        fill: url(#linear-gradient);
      }

      .cls-1, .cls-2, .cls-3, .cls-4, .cls-5, .cls-6 {
        stroke-width: 0px;
      }

      .cls-2 {
        fill: url(#linear-gradient-5);
      }

      .cls-3 {
        fill: none;
      }

      .cls-4 {
        fill: url(#linear-gradient-2);
      }

      .cls-5 {
        fill: url(#linear-gradient-3);
      }

      .cls-6 {
        fill: url(#linear-gradient-4);
      }
    </style>
    <linearGradient id="linear-gradient" x1="31.47" y1="-111.4" x2="41.07" y2="-129.7" gradientTransform="translate(0 -110.35) scale(1 -1)" gradientUnits="userSpaceOnUse">
      <stop offset="0" stop-color="#8a7dfc"/>
      <stop offset="1" stop-color="#5649ce"/>
    </linearGradient>
    <linearGradient id="linear-gradient-2" x1="38.02" y1="-110.2" x2="43.52" y2="-115.7" gradientTransform="translate(0 -110.35) scale(1 -1)" gradientUnits="userSpaceOnUse">
      <stop offset="0" stop-color="#80ebe9"/>
      <stop offset="1" stop-color="#48c8c3"/>
    </linearGradient>
    <linearGradient id="linear-gradient-3" x1="20.96" y1="-116.96" x2="30.56" y2="-135.16" xlink:href="#linear-gradient"/>
    <linearGradient id="linear-gradient-4" x1="9.04" y1="-123.17" x2="18.64" y2="-141.47" xlink:href="#linear-gradient"/>
    <linearGradient id="linear-gradient-5" x1="11.57" y1="-130.5" x2="48.97" y2="-130.5" xlink:href="#linear-gradient-2"/>
  </defs>
  <g id="Layer_1-2" data-name="Layer 1">
    <path class="cls-3" d="M13.87,12.2c-1.1,2-.5,5.1,1.8,8.4l14.3-9.1c-3.2-1.3-6.4-2-9.2-2h0v-2.6h0v2.6c-1.9,0-5.4.4-6.8,2.7h-.1Z"/>
    <path class="cls-1" d="M38.97,13.7l-.3-5.7c0-.9-1.1-1.5-1.9-1l-4.4,2.8c1,.4,1.9.9,2.9,1.5,1.3.7,2.5,1.5,3.6,2.4h.1Z"/>
    <path class="cls-4" d="M40.62,0h0c1.35,0,2.45,1.1,2.45,2.45h0c0,1.35-1.1,2.45-2.45,2.45h0c-1.35,0-2.45-1.1-2.45-2.45h0c0-1.35,1.1-2.45,2.45-2.45Z"/>
    <path class="cls-5" d="M25.17,29c4.5,2.6,9.4,4.1,13.4,4.1s.8,0,1.3,0l-.7-16c-1.5-1.3-3.2-2.5-5-3.5-1.4-.8-2.8-1.5-4.2-2.1l-14.3,9.1c2,2.9,5.2,6,9.5,8.5v-.1Z"/>
    <path class="cls-6" d="M38.57,35.7c-4.4,0-9.6-1.5-14.7-4.4-4.5-2.6-8.1-5.9-10.4-9.3L.57,30.2c-.9.6-.7,2,.4,2.2l19.2,3.6c1.3.2,2.5.9,3.5,1.8l14.9,14.3c.8.8,2.1.2,2.1-.9l-.7-15.4h-1.4v-.1Z"/>
    <path class="cls-2" d="M35.37,11.3c-5.5-3.2-10.6-4.8-14.9-4.8h-.5c-3.6,0-6.4,1.1-7.6,3.3-2.8,4.9,2.9,13.5,12.8,19.2,5.5,3.2,11.1,4.8,15.5,4.8s6.4-1.1,7.6-3.3c2.8-4.9-2.9-13.5-12.8-19.2h-.1ZM45.97,29.3c-.7,1.3-2.7,2-5.4,2-4.1,0-9.3-1.6-14.2-4.4-4.5-2.6-8.1-5.8-10.4-9.1-1.8-2.7-2.4-5.2-1.6-6.6.7-1.3,2.7-2,5.4-2h.5c4.1,0,8.8,1.6,13.7,4.4,4.5,2.6,8.1,5.8,10.4,9.1,1.8,2.7,2.4,5.2,1.6,6.6Z"/>
  </g>
</svg>