<?xml version="1.0" encoding="UTF-8"?>
<svg id="Layer_1" data-name="Layer 1" xmlns="http://www.w3.org/2000/svg" version="1.1" xmlns:xlink="http://www.w3.org/1999/xlink" viewBox="0 0 168.6 56.4">
  <defs>
    <style>
      .cls-1 {
        fill: url(#linear-gradient-12);
      }

      .cls-1, .cls-2, .cls-3, .cls-4, .cls-5, .cls-6, .cls-7, .cls-8, .cls-9, .cls-10, .cls-11, .cls-12, .cls-13, .cls-14, .cls-15, .cls-16, .cls-17, .cls-18, .cls-19, .cls-20, .cls-21, .cls-22 {
        stroke-width: 0px;
      }

      .cls-2 {
        fill: url(#linear-gradient);
      }

      .cls-3 {
        fill: #737373;
      }

      .cls-4 {
        fill: url(#linear-gradient-6);
      }

      .cls-23 {
        isolation: isolate;
      }

      .cls-5 {
        fill: #48c8c3;
      }

      .cls-6 {
        fill: #fafafc;
      }

      .cls-7 {
        fill: url(#linear-gradient-11);
      }

      .cls-8 {
        fill: url(#linear-gradient-5);
      }

      .cls-9 {
        fill: none;
      }

      .cls-10 {
        fill: url(#linear-gradient-13);
      }

      .cls-11 {
        fill: #343a40;
      }

      .cls-12 {
        fill: url(#linear-gradient-14);
      }

      .cls-13 {
        fill: url(#linear-gradient-2);
      }

      .cls-14 {
        fill: url(#linear-gradient-7);
      }

      .cls-15 {
        fill: url(#linear-gradient-3);
      }

      .cls-16 {
        fill: url(#linear-gradient-9);
      }

      .cls-17 {
        fill: #5649ce;
      }

      .cls-18 {
        fill: url(#linear-gradient-8);
      }

      .cls-19 {
        fill: #fff;
      }

      .cls-20 {
        fill: #80ebe9;
      }

      .cls-21 {
        fill: url(#linear-gradient-10);
      }

      .cls-22 {
        fill: url(#linear-gradient-4);
      }
    </style>
    <linearGradient id="linear-gradient" x1="1030.1" y1="-184.3" x2="1059.1" y2="-239.3" gradientTransform="translate(0 58) scale(1 -1)" gradientUnits="userSpaceOnUse">
      <stop offset="0" stop-color="#8a7dfc"/>
      <stop offset="1" stop-color="#5649ce"/>
    </linearGradient>
    <linearGradient id="linear-gradient-2" x1="1049.6" y1="-180.9" x2="1066.3" y2="-197.6" gradientTransform="translate(0 58) scale(1 -1)" gradientUnits="userSpaceOnUse">
      <stop offset="0" stop-color="#80ebe9"/>
      <stop offset="1" stop-color="#48c8c3"/>
    </linearGradient>
    <linearGradient id="linear-gradient-3" x1="998.2" y1="-201.1" x2="1027.2" y2="-256.1" gradientTransform="translate(0 58) scale(1 -1)" gradientUnits="userSpaceOnUse">
      <stop offset="0" stop-color="#8a7dfc"/>
      <stop offset="1" stop-color="#5649ce"/>
    </linearGradient>
    <linearGradient id="linear-gradient-4" x1="962.6" y1="-219.8" x2="991.5" y2="-274.8" gradientTransform="translate(0 58) scale(1 -1)" gradientUnits="userSpaceOnUse">
      <stop offset="0" stop-color="#8a7dfc"/>
      <stop offset="1" stop-color="#5649ce"/>
    </linearGradient>
    <linearGradient id="linear-gradient-5" x1="75.9" y1="54.1" x2="85.5" y2="35.8" gradientTransform="translate(0 58) scale(1 -1)" gradientUnits="userSpaceOnUse">
      <stop offset="0" stop-color="#8a7dfc"/>
      <stop offset="1" stop-color="#5649ce"/>
    </linearGradient>
    <linearGradient id="linear-gradient-6" x1="82.5" y1="55.3" x2="88" y2="49.8" gradientTransform="translate(0 58) scale(1 -1)" gradientUnits="userSpaceOnUse">
      <stop offset="0" stop-color="#80ebe9"/>
      <stop offset="1" stop-color="#48c8c3"/>
    </linearGradient>
    <linearGradient id="linear-gradient-7" x1="65.4" y1="48.6" x2="75" y2="30.4" gradientTransform="translate(0 58) scale(1 -1)" gradientUnits="userSpaceOnUse">
      <stop offset="0" stop-color="#8a7dfc"/>
      <stop offset="1" stop-color="#5649ce"/>
    </linearGradient>
    <linearGradient id="linear-gradient-8" x1="53.5" y1="42.4" x2="63.1" y2="24.1" gradientTransform="translate(0 58) scale(1 -1)" gradientUnits="userSpaceOnUse">
      <stop offset="0" stop-color="#8a7dfc"/>
      <stop offset="1" stop-color="#5649ce"/>
    </linearGradient>
    <linearGradient id="linear-gradient-9" x1="56" y1="35" x2="93.4" y2="35" gradientTransform="translate(0 58) scale(1 -1)" gradientUnits="userSpaceOnUse">
      <stop offset="0" stop-color="#80ebe9"/>
      <stop offset="1" stop-color="#48c8c3"/>
    </linearGradient>
    <linearGradient id="linear-gradient-10" x1="553.8" y1="-285.6" x2="560.1" y2="-297.6" gradientTransform="translate(265.9 -262.7) rotate(-27.3) scale(1 -1)" gradientUnits="userSpaceOnUse">
      <stop offset="0" stop-color="#8a7dfc"/>
      <stop offset="1" stop-color="#5649ce"/>
    </linearGradient>
    <linearGradient id="linear-gradient-11" x1="546.8" y1="-289.3" x2="553.1" y2="-301.4" gradientTransform="translate(265.9 -262.7) rotate(-27.3) scale(1 -1)" gradientUnits="userSpaceOnUse">
      <stop offset="0" stop-color="#8a7dfc"/>
      <stop offset="1" stop-color="#5649ce"/>
    </linearGradient>
    <linearGradient id="linear-gradient-12" x1="538.8" y1="-293.5" x2="545.2" y2="-305.5" gradientTransform="translate(265.9 -262.7) rotate(-27.3) scale(1 -1)" gradientUnits="userSpaceOnUse">
      <stop offset="0" stop-color="#8a7dfc"/>
      <stop offset="1" stop-color="#5649ce"/>
    </linearGradient>
    <linearGradient id="linear-gradient-13" x1="540.6" y1="-298.2" x2="565.3" y2="-298.2" gradientTransform="translate(265.9 -262.7) rotate(-27.3) scale(1 -1)" gradientUnits="userSpaceOnUse">
      <stop offset="0" stop-color="#80ebe9"/>
      <stop offset="1" stop-color="#48c8c3"/>
    </linearGradient>
    <linearGradient id="linear-gradient-14" x1="894.9" y1="340.1" x2="901" y2="333.9" gradientTransform="translate(-6.4 62.6) rotate(.5) scale(1 -1)" gradientUnits="userSpaceOnUse">
      <stop offset="0" stop-color="#80ebe9"/>
      <stop offset="1" stop-color="#48c8c3"/>
    </linearGradient>
  </defs>
  <rect class="cls-20" x="962.2" y="492.3" width="14.9" height="14.9"/>
  <rect class="cls-5" x="962.2" y="510.7" width="14.9" height="14.9"/>
  <rect class="cls-11" x="962.2" y="530.3" width="14.9" height="14.9"/>
  <rect class="cls-17" x="962.2" y="475" width="14.9" height="14.9"/>
  <g>
    <path class="cls-9" d="M976.9,276c-3.4,5.9-1.5,15.3,5.3,25.3l43.1-27.5c-9.7-3.9-19.4-6.1-27.9-6.1h0v-7.7h0v7.7c-5.9,0-16.3,1.1-20.5,8.3h0Z"/>
    <path class="cls-2" d="M1052.6,280.5l-.8-17.1c0-2.8-3.2-4.4-5.6-2.9l-13.1,8.4c2.9,1.4,5.8,2.9,8.7,4.5,3.9,2.2,7.5,4.6,10.9,7.1h0Z"/>
    <polygon class="cls-3" points="997.4 260 997.4 260 997.4 260 997.4 260"/>
    <rect class="cls-13" x="1050.1" y="239.4" width="14.9" height="14.9" rx="7.4" ry="7.4"/>
    <g>
      <path class="cls-11" d="M1104.8,293.3c13.7,0,24.1,7.7,27.4,20.2h-15.5c-2.4-4.9-6.7-7.4-12.1-7.4-8.6,0-14.6,6.4-14.6,16.6s5.9,16.6,14.6,16.6,9.7-2.5,12.1-7.4h15.5c-3.3,12.5-13.6,20.1-27.4,20.1s-29-12.1-29-29.4,12-29.4,29-29.4h0Z"/>
      <path class="cls-11" d="M1204,326.8c0-6-3.5-9.3-8.8-9.3s-8.8,3.3-8.8,9.3v24.9h-14v-24.9c0-6-3.5-9.3-8.8-9.3s-8.8,3.3-8.8,9.3v24.9h-14.1v-45.9h14.1v5.8c2.7-3.7,7.4-6.2,13.4-6.2s12.5,3,15.6,8.6c3-4.9,8.8-8.6,15.5-8.6,11.3,0,18.7,7.2,18.7,19.6v26.8h-14v-24.9h0Z"/>
      <path class="cls-11" d="M1256.1,305.2c11.3,0,20.2,9,20.2,23.5s-9,23.7-20.2,23.7-11.6-3.2-14.1-7.1v28.3h-14.1v-67.7h14.1v6.5c2.5-4,7.4-7.2,14.1-7.2ZM1251.9,317.4c-5.3,0-10,4-10,11.3s4.8,11.3,10,11.3,10.1-4.1,10.1-11.4-4.8-11.3-10.1-11.3h0Z"/>
      <path class="cls-11" d="M1285.9,317.5h-5.6v-11.7h5.6v-11.2h14.1v11.2h9.2v11.7h-9.2v18.4c0,2.7,1.2,3.9,4.3,3.9h5v11.9h-7.2c-9.5,0-16.2-4-16.2-15.9v-18.3h0Z"/>
    </g>
    <path class="cls-15" d="M1010.9,326.8c13.5,7.8,28.3,12.3,40.5,12.3s2.4,0,3.8-.2l-2.1-48.2c-4.5-3.9-9.6-7.5-15.2-10.7-4.1-2.4-8.4-4.5-12.6-6.2l-43.1,27.5c5.9,8.8,15.6,17.9,28.7,25.5h0Z"/>
    <path class="cls-22" d="M1051.4,346.7c-13.1,0-29-4.5-44.3-13.3-13.7-7.9-24.5-17.9-31.3-28l-38.8,24.8c-2.8,1.8-2,6.1,1.3,6.7l57.8,10.7c3.9.7,7.5,2.6,10.4,5.3l45,42.9c2.4,2.3,6.3.5,6.2-2.8l-2.1-46.5c-1.3.1-2.7.2-4.1.2h0Z"/>
    <image class="cls-23" width="180" height="151" transform="translate(933.3 227.3)" xlink:href="LogotypeDark-1.png"/>
    <path class="cls-6" d="M1041.7,273.3c-16.5-9.5-31.8-14.4-45-14.4h-1.5c-10.8,0-19.2,3.2-23,9.9-8.5,14.8,8.8,40.7,38.7,58,16.5,9.5,33.3,14.4,46.6,14.4s19.2-3.2,23-9.9c8.5-14.8-8.8-40.7-38.7-58h-.1ZM1073.8,327.5c-2.2,3.8-8.2,6-16.3,6-12.4,0-28-4.9-42.7-13.4-13.5-7.8-24.5-17.5-31.2-27.5-5.4-8.1-7.2-15.6-4.7-19.9,2.2-3.8,8.2-6,16.3-6h1.5c12.4,0,26.5,4.9,41.2,13.4,13.5,7.8,24.5,17.5,31.2,27.5,5.4,8.1,7.2,15.6,4.7,19.9h0Z"/>
    <g>
      <path class="cls-11" d="M824.9,294c14.1,0,21.2,8.1,21.2,18.2s-3.9,14.1-12.8,16.7l13.3,22.9h-15.9l-12-21.8h-3.4v21.8h-14.1v-57.7h23.7ZM824.1,305.6h-8.7v14.3h8.7c5.3,0,7.7-2.7,7.7-7.2s-2.5-7.1-7.7-7.1h0Z"/>
      <path class="cls-11" d="M875.1,305.2c11.5,0,19.6,6.3,22,17.3h-15c-1.2-3.2-3.5-5.3-7.3-5.3s-8.5,3.9-8.5,11.6,3.5,11.6,8.5,11.6,6.1-1.9,7.3-5.3h15c-2.4,10.6-10.5,17.3-22,17.3s-23-9-23-23.6,9.5-23.6,23-23.6Z"/>
      <path class="cls-11" d="M906.9,317.5h-5.6v-11.7h5.6v-11.2h14.1v11.2h9.2v11.7h-9.2v18.4c0,2.7,1.2,3.9,4.3,3.9h5v11.9h-7.2c-9.5,0-16.2-4-16.2-15.9v-18.3h0Z"/>
    </g>
  </g>
  <g>
    <path class="cls-9" d="M58.3,15c-1.1,2-.5,5.1,1.8,8.4l14.3-9.1c-3.2-1.3-6.4-2-9.2-2h0v-2.6h0v2.6c-1.9,0-5.4.4-6.8,2.7h-.1Z"/>
    <path class="cls-8" d="M83.4,16.5l-.3-5.7c0-.9-1.1-1.5-1.9-1l-4.4,2.8c1,.4,1.9.9,2.9,1.5,1.3.7,2.5,1.5,3.6,2.4h.1Z"/>
    <polygon class="cls-3" points="65.1 9.7 65.1 9.7 65.1 9.7 65.1 9.7"/>
    <path class="cls-4" d="M85,2.8h0c1.4,0,2.4,1.1,2.4,2.5h0c0,1.4-1.1,2.4-2.4,2.4h0c-1.4,0-2.4-1.1-2.4-2.4h0c0-1.4,1.1-2.5,2.4-2.5Z"/>
    <g>
      <path class="cls-19" d="M100.7,20.7c4.6,0,8,2.6,9.1,6.7h-5.1c-.8-1.6-2.2-2.5-4-2.5-2.9,0-4.8,2.1-4.8,5.5s2,5.5,4.8,5.5,3.2-.8,4-2.5h5.1c-1.1,4.1-4.5,6.7-9.1,6.7s-9.6-4-9.6-9.7,4-9.8,9.6-9.8h0Z"/>
      <path class="cls-19" d="M133.7,31.8c0-2-1.1-3.1-2.9-3.1s-2.9,1.1-2.9,3.1v8.3h-4.6v-8.3c0-2-1.1-3.1-2.9-3.1s-2.9,1.1-2.9,3.1v8.3h-4.7v-15.2h4.7v1.9c.9-1.2,2.5-2.1,4.4-2.1s4.1,1,5.2,2.8c1-1.6,2.9-2.8,5.1-2.8,3.8,0,6.2,2.4,6.2,6.5v8.9h-4.6v-8.3h0Z"/>
      <path class="cls-19" d="M150.9,24.7c3.7,0,6.7,3,6.7,7.8s-3,7.9-6.7,7.9-3.8-1.1-4.7-2.3v9.4h-4.7v-22.5h4.7v2.2c.8-1.3,2.5-2.4,4.7-2.4h0ZM149.6,28.7c-1.7,0-3.3,1.3-3.3,3.8s1.6,3.8,3.3,3.8,3.4-1.4,3.4-3.8-1.6-3.7-3.4-3.7h0Z"/>
      <path class="cls-19" d="M160.8,28.8h-1.9v-3.9h1.9v-3.7h4.7v3.7h3.1v3.9h-3.1v6.1c0,.9.4,1.3,1.4,1.3h1.7v4h-2.4c-3.2,0-5.4-1.3-5.4-5.3,0,0,0-6.1,0-6.1Z"/>
    </g>
    <path class="cls-14" d="M69.6,31.8c4.5,2.6,9.4,4.1,13.4,4.1s.8,0,1.3,0l-.7-16c-1.5-1.3-3.2-2.5-5-3.5-1.4-.8-2.8-1.5-4.2-2.1l-14.3,9.1c2,2.9,5.2,6,9.5,8.5h0Z"/>
    <path class="cls-18" d="M83,38.5c-4.4,0-9.6-1.5-14.7-4.4-4.5-2.6-8.1-5.9-10.4-9.3l-12.9,8.2c-.9.6-.7,2,.4,2.2l19.2,3.6c1.3.2,2.5.9,3.5,1.8l14.9,14.3c.8.8,2.1.2,2.1-.9l-.7-15.4h-1.4Z"/>
    <image class="cls-23" width="109" height="99" transform="translate(19.3 -25.7)" xlink:href="LogotypeDark-2.png"/>
    <path class="cls-16" d="M79.8,14.1c-5.5-3.2-10.6-4.8-14.9-4.8h-.5c-3.6,0-6.4,1.1-7.6,3.3-2.8,4.9,2.9,13.5,12.8,19.2,5.5,3.2,11.1,4.8,15.5,4.8s6.4-1.1,7.6-3.3c2.8-4.9-2.9-13.5-12.8-19.2h0ZM90.4,32.1c-.7,1.3-2.7,2-5.4,2-4.1,0-9.3-1.6-14.2-4.4-4.5-2.6-8.1-5.8-10.4-9.1-1.8-2.7-2.4-5.2-1.6-6.6.7-1.3,2.7-2,5.4-2h.5c4.1,0,8.8,1.6,13.7,4.4,4.5,2.6,8.1,5.8,10.4,9.1,1.8,2.7,2.4,5.2,1.6,6.6Z"/>
    <g>
      <path class="cls-19" d="M7.8,21c4.7,0,7,2.7,7,6s-1.3,4.7-4.3,5.5l4.4,7.6h-5.3l-4-7.2h-1.1v7.2H0v-19.2h7.8ZM7.6,24.8h-2.9v4.7h2.9c1.7,0,2.6-.9,2.6-2.4s-.8-2.3-2.6-2.3Z"/>
      <path class="cls-19" d="M24.5,24.7c3.8,0,6.5,2.1,7.3,5.7h-5c-.4-1.1-1.1-1.7-2.4-1.7s-2.8,1.3-2.8,3.8,1.1,3.8,2.8,3.8,2-.6,2.4-1.7h5c-.8,3.5-3.5,5.7-7.3,5.7s-7.6-3-7.6-7.8,3.2-7.8,7.6-7.8Z"/>
      <path class="cls-19" d="M35,28.8h-1.9v-3.9h1.9v-3.7h4.7v3.7h3.1v3.9h-3.1v6.1c0,.9.4,1.3,1.4,1.3h1.7v4h-2.4c-3.2,0-5.4-1.3-5.4-5.3,0,0,0-6.1,0-6.1Z"/>
    </g>
  </g>
  <g>
    <g>
      <path class="cls-11" d="M844.1-259.3c5.9,0,8.8,3.4,8.8,7.5s-1.6,5.8-5.3,6.9l5.5,9.5h-6.6l-5-9h-1.4v9h-5.8v-23.9h9.8ZM843.7-254.4h-3.6v5.9h3.6c2.2,0,3.2-1.1,3.2-3s-1-2.9-3.2-2.9Z"/>
      <path class="cls-11" d="M865-235.1c-5.6,0-9.6-3.7-9.6-9.8s4-9.8,9.6-9.8,9.5,3.7,9.5,9.5,0,1.1,0,1.7h-13.2c.2,2.5,1.7,3.6,3.6,3.6s2.6-.8,3-1.8h6.2c-.9,3.7-4.3,6.6-9,6.6ZM861.2-246.7h7.3c0-2.1-1.6-3.3-3.6-3.3s-3.4,1.2-3.7,3.3Z"/>
    </g>
    <g>
      <path class="cls-11" d="M922.6-254.6c4.8,0,8.1,2.6,9.1,7.2h-6.2c-.5-1.3-1.4-2.2-3-2.2s-3.5,1.6-3.5,4.8,1.4,4.8,3.5,4.8,2.5-.8,3-2.2h6.2c-1,4.4-4.4,7.2-9.1,7.2s-9.5-3.7-9.5-9.8,4-9.8,9.5-9.8Z"/>
      <path class="cls-11" d="M935.7-249.5h-2.3v-4.8h2.3v-4.6h5.8v4.6h3.8v4.8h-3.8v7.6c0,1.1.5,1.6,1.8,1.6h2.1v4.9h-3c-4,0-6.7-1.7-6.7-6.6v-7.6h0Z"/>
    </g>
    <path class="cls-9" d="M882-250.9c0,1.5,1.3,3.1,3.6,4.4l5.6-9.7c-2.3.2-4.4.8-6,1.6h0l-.8-1.5h0l.8,1.5c-1.1.6-3.1,1.9-3.2,3.7h0Z"/>
    <path class="cls-21" d="M897.2-257.7l-1.9-3.3c-.3-.5-1.1-.5-1.4,0l-1.7,3h2.1c1,0,1.9.1,2.8.3h.1Z"/>
    <polygon class="cls-3" points="884.3 -256 884.3 -256 884.3 -256 884.3 -256"/>
    <path class="cls-7" d="M893.7-244.4c3.4.2,6.7-.5,9.1-1.7s.5-.3.7-.4l-5.3-9.2c-1.3-.3-2.6-.5-4-.6h-3.1l-5.6,9.7c2,1.1,4.8,1.9,8.2,2.1h0Z"/>
    <path class="cls-1" d="M903.6-244.6c-2.6,1.3-6.1,2.1-10,1.9-3.5-.2-6.6-1-8.9-2.3l-5.1,8.7c-.4.6.2,1.4.9,1.2l12.1-3.9c1.4-.5,2.5-.5,4,0l11.9,4c.7.2,1.3-.5.9-1.2l-5.1-8.9c-.3.2-.5.3-.8.4h0Z"/>
    <image class="cls-23" width="99" height="86" transform="translate(844.3 -293.7)" xlink:href="LogotypeDark-3.png"/>
    <path class="cls-10" d="M894.3-258c-4.2-.2-7.6.4-10.2,1.7l-.3.2c-2.1,1.1-3.4,2.6-3.5,4.2-.2,3.7,5.8,7,13.4,7.4,4.2.2,7.9-.5,10.5-1.9s3.4-2.6,3.5-4.2c.2-3.7-5.8-7-13.4-7.4h0ZM906-250.6c0,1-1,2-2.6,2.8-2.4,1.3-5.9,1.9-9.7,1.7-3.4-.2-6.5-1-8.9-2.2-1.9-1-3-2.3-2.9-3.4,0-1,1-2,2.6-2.8l.3-.2c2.4-1.3,5.6-1.7,9.4-1.5,3.4.2,6.5,1,8.9,2.2,1.9,1,3,2.3,2.9,3.4h0Z"/>
    <circle class="cls-12" cx="894.7" cy="-266.3" r="2.8"/>
  </g>
</svg>